<?xml version="1.0"?><svg width="640" height="480" xmlns="http://www.w3.org/2000/svg" xmlns:xlink="http://www.w3.org/1999/xlink">
 <defs>
  <linearGradient id="linearGradient3459">
   <stop stop-color="#000000" stop-opacity="0" offset="0" id="stop3461"/>
   <stop stop-color="#000000" stop-opacity="0.37069" offset="1" id="stop3465"/>
  </linearGradient>
  <linearGradient id="linearGradient4674">
   <stop stop-color="#000000" stop-opacity="0" offset="0" id="stop4676"/>
   <stop stop-color="#000000" stop-opacity="0" offset="0.5" id="stop3400"/>
   <stop stop-color="#000000" stop-opacity="0.37069" offset="1" id="stop4678"/>
  </linearGradient>
  <filter id="filter3485" x="-0.11576" width="1.231521" y="-0.124562" height="1.249124">
   <feGaussianBlur stdDeviation="6.0922" id="feGaussianBlur3487"/>
  </filter>
  <radialGradient gradientTransform="matrix(1.189, 4.55698, -2.92608, 0.438161, 1349.46, -2345.49)" gradientUnits="userSpaceOnUse" xlink:href="#linearGradient4674" id="radialGradient2533" fy="519.23804" fx="515.86072" r="76.268501" cy="519.23804" cx="515.86072"/>
  <linearGradient gradientTransform="translate(54)" xlink:href="#linearGradient3459" id="linearGradient2535" y2="0.909382" x2="0.512198" y1="0.909382" x1="0.521608"/>
  <radialGradient gradientTransform="matrix(3.20611, -0.874332, 0.536458, 1.12897, -1383.02, 56.128)" gradientUnits="userSpaceOnUse" xlink:href="#linearGradient4674" id="radialGradient2537" fy="542.7088" fx="453.75168" r="77.982285" cy="542.7088" cx="453.75168"/>
 </defs>
 <g>
  <title>Layer 1</title>
  <g display="inline" id="layer1"/>
  <g display="inline" id="layer3">
   <g id="g2466">
    <g fill="none" display="inline" id="g4765">
     <path fill="#000000" fill-rule="evenodd" stroke-width="4" stroke-linecap="round" stroke-linejoin="round" stroke-miterlimit="4" id="path2385" d="m416.869354,38.091946c-5.214142,0.312759 -9.429108,1.31815 -12.43399,2.995506c-2.95755,1.650928 -5.494781,4.351299 -8.479919,7.939899c-2.985107,3.5886 -6.293457,8.080452 -10.147278,13.317375c-7.70755,10.473839 -17.562073,23.8451 -30.77533,38.183685c-34.341431,36.083252 -68.896515,58.522263 -131.033386,85.15538c75.245392,-22.078979 113.166901,-59.657097 136.035553,-82.520782c13.418152,-14.560905 23.401367,-28.070862 31.108826,-38.544586c3.85376,-5.236851 7.116211,-9.722179 9.956726,-13.136921c2.840546,-3.414745 5.354431,-5.746948 6.955414,-6.640644c3.107239,-1.734489 12.892578,-3.086651 26.154297,-1.046623c13.261719,2.040028 30.101379,7.118031 48.259155,16.854237c36.31543,19.472378 77.932922,57.544903 107.046692,126.966167c29.141174,69.486435 36.090088,136.697556 35.25354,186.948471c-0.418335,25.125458 -2.798767,46.008087 -5.288025,60.812408c-1.24469,7.402161 -2.498413,13.286163 -3.572998,17.395599c-0.537292,2.054688 -1.035645,3.655487 -1.429199,4.763916c-0.112854,0.317932 -0.192505,0.4935 -0.285828,0.721832c-0.448486,-0.122162 -0.925171,-0.265198 -1.762695,-0.68573c-2.215271,-1.112366 -5.240601,-3.228516 -8.146423,-5.990997c-5.811584,-5.524963 -11.23407,-13.594666 -11.671753,-21.221161c-0.218201,-3.801666 0.320801,-17.299469 0.095276,-36.090454c-0.225525,-18.791016 -1.259399,-43.076935 -4.811646,-69.257568c-2.317383,-18.140503 -14.81427,-102.88942 -69.363586,-151.543777c44.320129,45.131454 56.69812,114.008652 63.313354,152.012955c3.525513,25.983765 4.539673,50.12793 4.763977,68.824463c0.224365,18.696564 -0.356934,31.71167 -0.095276,36.270905c0.521973,9.095215 6.581299,17.74823 13.005676,23.855774c3.212219,3.053802 6.494812,5.478424 9.527954,7.001556c1.516602,0.761536 2.953125,1.315399 4.573425,1.55188c1.6203,0.236481 3.911499,-0.049927 5.192749,-1.263153c0.65802,-0.62323 0.692383,-0.9216 0.905151,-1.37146c0.21283,-0.44986 0.442261,-0.955261 0.666992,-1.587952c0.449402,-1.265442 0.921326,-2.964508 1.476807,-5.088745c1.110962,-4.248596 2.408691,-10.229828 3.668274,-17.720428c2.519043,-14.981201 4.914246,-36.041443 5.335693,-61.353729c0.842773,-50.624603 -6.139404,-118.288696 -35.539368,-188.39212c-29.427246,-70.168633 -71.752747,-109.161255 -109.333435,-129.312057c-18.790283,-10.075397 -36.384094,-15.4263 -50.593506,-17.612133c-7.104706,-1.092903 -13.317749,-1.503746 -18.531891,-1.190987z"/>
     <path fill="#000000" fill-rule="evenodd" stroke-width="4" stroke-linecap="round" stroke-linejoin="round" stroke-miterlimit="4" id="path4499" d="m519.738403,228.538742c21.935303,30.023636 28.443176,67.943161 33.428528,93.621078c2.26709,13.694672 3.431274,25.868225 4.239929,35.476898c0.808716,9.608673 1.174011,16.45343 2.286743,20.246735c2.147583,7.321411 9.149353,14.401855 15.625854,19.019684c3.238281,2.308868 6.210327,3.995728 9.146851,4.763916c1.468262,0.384094 3.291748,0.686066 5.097473,-0.216553c1.805725,-0.902588 2.223511,-2.60788 2.048523,-3.933868c-0.143127,-1.075378 -1.251282,-1.931793 -2.667725,-2.061646c-1.416382,-0.129761 -2.762207,0.501801 -3.239624,1.520294c-1.41626,-0.520477 -3.696716,-1.64859 -6.193176,-3.428589c-5.759521,-4.106537 -12.172058,-10.872498 -13.86322,-16.637665c-0.80658,-2.749939 -1.380615,-9.926086 -2.191406,-19.561066c-0.810791,-9.634918 -1.948486,-21.923981 -4.239929,-35.765625c-1.188904,-7.295746 -10.284729,-68.27449 -39.478821,-93.043594z"/>
     <path fill="#000000" fill-rule="evenodd" stroke-width="4" stroke-linecap="round" stroke-linejoin="round" stroke-miterlimit="4" id="path4501" d="m488.978943,233.002396c13.443573,17.283295 20.9646,36.439835 27.648254,55.088028c4.86853,14.843109 6.523865,26.264313 8.527527,33.09494c2.180054,7.431946 9.96167,14.662445 17.436157,19.055756c3.737244,2.196655 7.273926,3.78064 11.004822,3.933838c1.865479,0.07663 4.021545,-0.369537 5.430969,-1.551849c1.409363,-1.182312 1.905579,-2.765594 1.905579,-4.47525c0.015503,-0.832977 -0.562195,-1.607758 -1.511902,-2.02774c-0.949768,-0.419922 -2.12439,-0.419922 -3.074097,0c-0.949707,0.419983 -1.527466,1.194763 -1.511902,2.02774c0,1.016754 -0.310913,1.352417 -0.333496,1.37146c-0.022583,0.019043 0.052124,0.061676 -0.571655,0.036072c-1.247498,-0.051239 -4.401855,-1.066467 -7.622375,-2.959412c-6.441101,-3.785828 -13.538391,-10.76651 -15.197144,-16.421143c-1.835022,-6.25592 -3.559326,-18.056274 -8.527527,-33.203186c-2.489929,-6.871582 -12.97467,-36.000168 -33.60321,-53.969254z"/>
     <path fill="#000000" fill-rule="evenodd" stroke-width="4" stroke-linecap="round" stroke-linejoin="round" stroke-miterlimit="4" id="path4503" d="m423.348358,111.860809c-7.159729,61.076981 20.251404,102.702652 38.731201,130.466949c7.171021,10.321793 14.707886,21.91217 20.866241,31.831757c6.158386,9.919617 10.980713,18.279114 12.529297,21.798615c3.661926,8.32251 11.468262,13.242371 18.484253,14.760986c3.508057,0.759338 7.050903,0.776031 9.813782,-0.721771c2.762939,-1.497833 3.668823,-4.500977 2.477295,-7.434631c-0.499939,-1.2258 -2.216919,-1.912598 -3.835022,-1.533844c-1.618042,0.378723 -2.524597,1.679474 -2.024658,2.905273c0.727783,1.792053 0.315491,2.035431 -0.190552,2.309784c-0.506104,0.274353 -2.203369,0.549103 -4.573425,0.036072c-4.740295,-1.026031 -11.283691,-4.820313 -14.33963,-11.765442c-1.810303,-4.114349 -6.617462,-12.357178 -12.815094,-22.340027c-6.197662,-9.982788 -13.78476,-21.577484 -21.009186,-31.976105c-3.867676,-6.668854 -40.349487,-52.995193 -44.114502,-128.337616l0,0z"/>
    </g>
    <g fill="none" display="inline" id="g4735">
     <path fill="#000000" fill-rule="evenodd" stroke-width="4" stroke-linecap="round" stroke-linejoin="round" stroke-miterlimit="4" id="path4527" d="m402.780243,189.576965c6.332642,26.525238 15.878906,48.400696 31.334717,69.568939c9.304565,11.346893 18.508759,17.815002 26.297211,20.932465c3.894196,1.558716 7.442505,2.264709 10.57605,2.237579c3.133514,-0.02713 6.055756,-0.904785 7.670013,-2.742859c1.717346,-1.955444 1.681244,-4.171692 1.429199,-6.748901c-0.252075,-2.57724 -0.986206,-5.514038 -1.953247,-8.625641c-1.93396,-6.223267 -4.831726,-13.072632 -6.907776,-17.973038c-0.513062,-1.215866 -2.230042,-1.886414 -3.834991,-1.497742c-1.60498,0.388672 -2.490112,1.689407 -1.977081,2.905289c2.07608,4.900406 4.962646,11.659607 6.8125,17.612122c0.924988,2.976257 1.550629,5.771942 1.762695,7.939911c0.212036,2.167969 -0.291809,3.669586 -0.428772,3.825562c-0.240051,0.273376 -0.858063,0.670502 -2.620178,0.68573c-1.762115,0.015228 -4.447357,-0.442383 -7.670013,-1.73233c-6.445343,-2.579834 -15.068817,-8.425995 -23.96286,-19.272308c-14.464539,-21.644043 -23.072388,-36.599579 -36.527466,-67.114777z"/>
     <path fill="#000000" fill-rule="evenodd" stroke-width="4" stroke-linecap="round" stroke-linejoin="round" stroke-miterlimit="4" id="path4529" d="m387.221954,219.520981c6.67865,22.489075 19.731781,41.894302 32.124664,59.979904c7.576416,9.606293 15.189575,15.139618 21.723785,17.864807c3.26712,1.362518 6.232513,2.04953 8.956268,2.057129c2.723755,0.007629 5.372986,-0.771088 6.860138,-2.41803c1.592041,-1.763184 1.55072,-3.65918 1.381561,-5.84668c-0.169159,-2.1875 -0.721863,-4.671509 -1.476837,-7.290253c-1.51004,-5.237427 -3.78717,-10.973633 -5.430939,-15.085815c-0.486725,-1.2258 -2.193115,-1.920624 -3.811188,-1.55188c-1.618073,0.368713 -2.535248,1.661438 -2.048523,2.887238c1.643768,4.112183 3.903687,9.757996 5.335663,14.724915c0.716003,2.483429 1.243958,4.788727 1.381561,6.568451c0.137634,1.779724 -0.349304,3.013062 -0.333466,2.995483c-0.08905,0.098633 -0.464874,0.400726 -1.810333,0.397003c-1.345428,-0.003754 -3.497894,-0.395355 -6.0979,-1.479706c-5.19989,-2.168732 -12.211151,-7.103119 -19.389404,-16.20459c-5.832855,-6.089081 -25.637787,-34.882782 -37.365051,-57.597977z"/>
     <path fill="#000000" fill-rule="evenodd" stroke-width="4" stroke-linecap="round" stroke-linejoin="round" stroke-miterlimit="4" id="path4531" d="m379.821564,242.017242c4.800598,27.043518 13.517487,41.711884 20.183289,51.73938c6.249847,8.9328 12.767181,14.184265 18.531891,16.89035c2.882355,1.353027 5.584106,2.099945 8.098785,2.201508c2.514679,0.101593 5.024597,-0.513672 6.526642,-2.021057c1.613892,-1.619659 1.69223,-3.382446 1.667389,-5.377502c-0.024841,-1.995056 -0.37915,-4.250061 -0.905151,-6.640625c-1.052063,-4.781128 -2.814941,-10.027161 -4.049377,-13.78653c-0.212891,-0.840546 -1.021759,-1.52298 -2.10202,-1.77359c-1.080231,-0.250519 -2.254791,-0.028046 -3.052338,0.578156c-0.797516,0.60611 -1.08725,1.496674 -0.752991,2.31424c1.234467,3.759369 2.914215,8.916199 3.906464,13.425598c0.496124,2.2547 0.837738,4.33017 0.857513,5.918854c0.019775,1.588715 -0.528717,2.662781 -0.428741,2.562408c-0.01178,0.011841 -0.202423,0.226166 -1.333923,0.18045c-1.1315,-0.045654 -3.006714,-0.431183 -5.240387,-1.479706c-4.467377,-2.097107 -10.453033,-6.743134 -16.340454,-15.157959c-3.136139,-3.291351 -13.023743,-17.655853 -25.566589,-49.573975z"/>
     <path fill="#000000" fill-rule="evenodd" stroke-width="4" stroke-linecap="round" stroke-linejoin="round" stroke-miterlimit="4" id="path4533" d="m369.651459,259.955688c1.132538,8.634064 2.931824,16.008484 5.047363,22.347443c3.804504,11.399506 8.631744,19.450409 12.443268,25.456573c5.005493,7.784851 10.336578,12.465668 15.197113,14.941437c2.430237,1.237946 4.725647,1.948212 6.955414,2.093262c2.229767,0.14505 4.578217,-0.363098 6.002625,-1.732361c1.539215,-1.479706 1.627991,-2.998108 1.667389,-4.727814c0.039398,-1.729736 -0.199738,-3.714783 -0.571686,-5.774506c-0.743896,-4.119354 -2.029205,-8.640381 -2.953674,-11.873718c-0.368317,-1.255707 -2.010681,-2.047516 -3.668243,-1.768463c-1.657593,0.279114 -2.702698,1.523315 -2.334351,2.778992c0.924438,3.233337 2.210571,7.662048 2.906006,11.512817c0.347717,1.925446 0.554321,3.686829 0.524048,5.016602c-0.030273,1.329773 -0.555573,2.198486 -0.333466,1.984955c0.107208,-0.103027 0.114105,0.017853 -0.7146,-0.036072c-0.828735,-0.053925 -2.301575,-0.384674 -4.097046,-1.299255c-3.590942,-1.829102 -8.429932,-5.872223 -13.100952,-13.136932c-3.596008,-3.659149 -14.641052,-22.09137 -22.969208,-45.782959z"/>
     <path fill="#000000" fill-rule="evenodd" stroke-width="4" stroke-linecap="round" stroke-linejoin="round" stroke-miterlimit="4" id="path4535" d="m319.4935,315.807892c2.742188,9.388519 6.913635,15.488251 11.243011,19.091858c2.164673,1.801819 4.34436,2.98526 6.621948,3.572968c2.277588,0.587616 4.909607,0.523621 6.8125,-0.613556c2.049896,-1.225037 2.619293,-2.85202 3.239502,-4.691772c0.620209,-1.839752 1.038391,-3.98642 1.333923,-6.279724c0.591034,-4.586548 0.710815,-9.708557 0.809875,-13.389557c0.039429,-1.275665 -1.29364,-2.334045 -2.977509,-2.363953c-1.683868,-0.029846 -3.080963,0.980042 -3.120392,2.255676c-0.09906,3.681 -0.253418,8.746704 -0.809875,13.064728c-0.278229,2.159027 -0.653564,4.141113 -1.143372,5.594025c-0.489777,1.452911 -1.347717,2.287506 -1.143341,2.165405c0.057312,-0.03421 -0.054474,0.135864 -1.000458,-0.108246c-0.945953,-0.24411 -2.490601,-0.969055 -4.144653,-2.345856c-3.308044,-2.75354 -7.187531,-8.133972 -9.766174,-16.962524c-2.312378,-8.275299 -5.676208,-33.973877 -4.450073,-52.611847c-7.571899,16.47644 -3.527313,42.924805 -1.504913,53.622375z"/>
     <path fill="#000000" fill-rule="evenodd" stroke-width="4" stroke-linecap="round" stroke-linejoin="round" stroke-miterlimit="4" id="path4537" d="m296.864594,251.025543c-8.408752,23.139343 -5.230255,49.403656 -4.525787,59.007874c1.51474,10.058105 4.969147,16.770874 8.956299,20.896393c1.993561,2.062683 4.120972,3.492767 6.383728,4.294739c2.262756,0.801941 4.892609,0.929321 7.003052,-0.072174c2.27005,-1.077209 3.138367,-2.683899 4.049377,-4.547424c0.911041,-1.863495 1.646881,-4.051483 2.286713,-6.424072c1.279694,-4.74527 2.175537,-10.12027 2.81076,-13.96701c0.150085,-0.823944 -0.296173,-1.645416 -1.168335,-2.150696c-0.872162,-0.505249 -2.035583,-0.616333 -3.045929,-0.29068c-1.010345,0.325562 -1.711578,1.037506 -1.835999,1.863953c-0.635223,3.84671 -1.55484,9.125641 -2.763092,13.606079c-0.604156,2.240204 -1.27359,4.286804 -2.000885,5.774475c-0.727295,1.48764 -1.74942,2.321747 -1.572113,2.237579c0.01767,-0.008362 -0.196747,0.135864 -1.19101,-0.216522c-0.994232,-0.352356 -2.501282,-1.249359 -4.049377,-2.851135c-3.096161,-3.203674 -6.38382,-9.205475 -7.812927,-18.694855c-1.968506,-10.38678 -2.678314,-42.043304 -1.524475,-58.466522z"/>
     <path fill="#000000" fill-rule="evenodd" stroke-width="4" stroke-linecap="round" stroke-linejoin="round" stroke-miterlimit="4" id="path4539" d="m275.610321,246.408783c-12.518799,18.674194 -11.796356,43.957489 -12.188904,52.544891c0.124878,10.525757 2.756836,17.748444 6.288452,22.339966c1.765839,2.295746 3.751007,3.968536 5.954987,4.980469c2.203979,1.011932 4.90033,1.376953 7.193604,0.541351c2.463379,-0.897522 3.599854,-2.488312 4.811646,-4.330841c1.211792,-1.842529 2.280975,-4.063782 3.28714,-6.460175c2.012268,-4.792755 3.692169,-10.259857 4.906891,-14.183563c0.3815,-1.245728 -0.642273,-2.48996 -2.286713,-2.778961c-1.644409,-0.288971 -3.286774,0.486572 -3.668243,1.732361c-1.214722,3.923706 -2.860626,9.289246 -4.764008,13.822632c-0.95166,2.266724 -1.979553,4.329437 -2.953644,5.810547c-0.974121,1.48111 -2.145844,2.254333 -2.000885,2.201538c-0.025177,0.009155 -0.318726,0.141296 -1.333923,-0.324829c-1.015167,-0.466125 -2.471405,-1.51651 -3.858826,-3.320313c-2.77478,-3.607574 -5.360535,-10.115204 -5.478577,-20.066315c-0.602051,-10.184692 0.536316,-32.970367 6.091003,-52.508759z"/>
     <path fill="#000000" fill-rule="evenodd" stroke-width="4" stroke-linecap="round" stroke-linejoin="round" stroke-miterlimit="4" id="path4543" d="m356.537994,268.965027c-0.807068,19.292389 5.324768,30.632324 11.643433,45.110535c3.963928,7.641235 8.406433,12.368073 12.624573,14.977509c2.10907,1.304688 4.147491,2.093384 6.240814,2.345886c2.093323,0.252472 4.449982,-0.184143 5.85968,-1.479706c1.527527,-1.40387 1.668335,-2.832672 1.810333,-4.47522c0.141998,-1.642517 0.011963,-3.507935 -0.190552,-5.485718c-0.40509,-3.955597 -1.237152,-8.318207 -1.857971,-11.440674c-0.249969,-1.265717 -1.806946,-2.138245 -3.477692,-1.948914c-1.670746,0.189362 -2.82254,1.368927 -2.572571,2.634613c0.620819,3.122467 1.478668,7.411957 1.857971,11.115875c0.189606,1.851929 0.252716,3.566223 0.142914,4.83609c-0.109802,1.269867 -0.65979,2.060638 -0.381134,1.804535c0.160828,-0.147827 0.373535,-0.034454 -0.23819,-0.108276c-0.611725,-0.073792 -1.822815,-0.472198 -3.334778,-1.407532c-3.023895,-1.870636 -7.114258,-5.896118 -10.81424,-13.028625c-3.857819,-5.13092 -11.367615,-21.650482 -17.312592,-43.450378z"/>
     <path fill="#000000" fill-rule="evenodd" stroke-width="4" stroke-linecap="round" stroke-linejoin="round" stroke-miterlimit="4" id="path4545" d="m340.502686,269.7565c-3.707916,18.312439 4.498474,41.096497 6.669586,48.216797c3.019196,7.885162 6.883209,12.879211 10.766602,15.771545c1.941681,1.446136 3.901215,2.381683 5.954987,2.778961c2.053741,0.397278 4.441559,0.145203 6.002594,-1.046631c1.691498,-1.291443 1.945862,-2.70517 2.286713,-4.330841c0.340881,-1.625702 0.485565,-3.502258 0.524048,-5.485748c0.076996,-3.967072 -0.237366,-8.360382 -0.47641,-11.512848c-0.092102,-1.275665 -1.531799,-2.253265 -3.215668,-2.183502c-1.683868,0.069824 -2.974335,1.160492 -2.882233,2.436127c0.239044,3.152496 0.548462,7.473419 0.47641,11.188049c-0.036041,1.8573 -0.165253,3.579285 -0.428772,4.83609c-0.263489,1.256836 -0.927887,2.040131 -0.619293,1.804535c0.178131,-0.135956 0.409637,-0.064362 -0.190582,-0.18045c-0.600189,-0.116119 -1.752289,-0.551208 -3.144226,-1.587952c-2.783905,-2.073456 -6.376251,-6.39035 -9.194489,-13.750488c-2.889374,-5.202911 -9.232086,-27.296509 -12.529266,-46.953644l0,0z"/>
     <path fill="#000000" fill-rule="evenodd" stroke-width="4" stroke-linecap="round" stroke-linejoin="round" stroke-miterlimit="4" id="path4547" d="m242.650452,250.700729c-5.817795,13.1465 -5.259048,28.217026 -6.002625,35.476913c-1.11145,10.492523 0.689697,17.853516 3.668259,22.664795c1.489258,2.40567 3.259247,4.184937 5.335663,5.34137c2.076431,1.156464 4.668427,1.724304 7.050705,1.046631c2.55896,-0.727997 3.864685,-2.252472 5.288025,-4.006042c1.42334,-1.753571 2.7659,-3.888458 4.049377,-6.20752c2.567017,-4.638214 4.903748,-9.960297 6.57431,-13.78656c0.431488,-0.795624 0.243774,-1.70697 -0.487152,-2.365143c-0.730988,-0.658142 -1.884094,-0.954132 -2.992645,-0.768188c-1.108521,0.186035 -1.988831,0.823181 -2.284637,1.653625c-1.670563,3.826263 -4.003326,9.110626 -6.431366,13.497803c-1.214035,2.193573 -2.476486,4.148285 -3.620636,5.557953c-1.14415,1.409637 -2.389618,2.136078 -2.239075,2.093201c-0.026138,0.007477 -0.329849,0.09964 -1.28627,-0.433044c-0.956421,-0.532684 -2.307602,-1.682861 -3.477707,-3.572968c-2.340271,-3.780273 -4.150864,-12.23764 -4.567566,-22.08075c-0.252945,-5.974487 0.776337,-19.696198 1.42334,-34.112076z"/>
    </g>
    <path fill="url(#radialGradient2533)" fill-rule="evenodd" stroke-width="4" stroke-linecap="round" stroke-linejoin="round" marker-mid="none" stroke-miterlimit="4" id="path3368" d="m588.587463,397.755524c-0.959717,-7.270294 0.000061,15.99472 0.959778,32.716339c0.959656,16.72171 23.032471,33.443451 26.871277,29.808319c3.838745,-3.635193 34.548828,-133.773682 -23.992249,-273.363586c-58.541077,-139.589901 -167.945709,-154.130505 -186.179871,-143.952087c-18.234131,10.178421 21.593048,10.541935 17.274384,71.249016c-4.318573,60.707085 28.333435,108.432732 41.266724,127.048653c14.395325,20.720337 30.230255,46.348175 33.589142,53.981995c6.717773,15.26767 28.790649,17.448761 24.951904,7.997345c-3.838806,-9.451416 0.959717,4.362213 4.798462,17.44873c3.838806,13.086609 29.750427,28.354187 29.750427,17.448761c0,-10.905457 0.959656,26.173096 4.798401,39.259644c3.838806,13.086578 26.871399,27.627136 25.911621,20.356873z"/>
    <path fill="url(#linearGradient2535)" fill-rule="evenodd" stroke-width="1px" filter="url(#filter3485)" id="path3443" d="m233.158813,219.102631c-15.405396,-7.263977 54.841553,-30.440048 101.247284,-64.705719c46.644989,-34.442223 71.017029,-72.703056 80.134125,-70.52195c9.117065,2.181076 4.318542,28.354187 4.318542,51.255653c0,22.611115 6.238037,42.531311 4.318665,50.528656c-1.919434,7.997314 -47.02478,2.181076 -81.573669,7.270279c-34.548798,5.089233 -102.236282,29.100632 -108.444946,26.17308z"/>
    <path fill="url(#radialGradient2537)" fill-rule="evenodd" stroke-width="4" stroke-linecap="round" stroke-linejoin="round" stroke-miterlimit="4" id="path3404" d="m468.328369,246.940704c4.15213,9.80072 11.49823,27.140503 7.789581,31.363434c-3.70874,4.22287 -21.222595,1.813477 -39.421295,-20.379761c-18.198608,-22.193207 -31.358459,-66.99823 -31.358459,-66.99823m43.089569,78.518707c3.287628,8.224396 9.104065,22.77533 5.951721,26.266449c-3.152313,3.49118 -17.667114,1.311737 -32.421783,-17.396088c-14.754669,-18.707764 -32.099396,-57.547699 -32.099396,-57.547699m37.075623,64.806091c2.468872,7.518799 6.836945,20.821259 3.809143,23.859741c-3.02774,3.038513 -15.909393,0.5867 -28.046661,-16.760986c-12.137268,-17.347748 -25.427124,-52.916473 -25.427124,-52.916473m33.167847,61.435425c1.84903,6.466675 5.120361,17.907593 2.486023,20.440063c-2.634338,2.532379 -13.381775,0.181 -23.05835,-14.8685c-9.676453,-15.0495 -19.776123,-45.673157 -19.776123,-45.673157m-23.589233,52.349518c-0.198059,7.362122 -0.548462,20.387299 -4.239594,22.593109c-3.691162,2.205902 -14.45993,-2.502869 -19.780792,-20.720001c-5.320831,-18.217072 -5.8284,-53.352234 -5.8284,-53.352234m4.133179,47.955933c-1.270508,7.693481 -3.518372,21.304932 -7.703888,23.291107c-4.185516,1.986145 -14.787445,-3.891449 -17.731293,-23.438904c-2.943848,-19.547424 1.597717,-56.391739 1.597717,-56.391739m-4.052917,47.929367c-2.429413,7.847412 -6.7276,21.731293 -11.364441,23.420776c-4.636871,1.689514 -14.809845,-5.315002 -15.052734,-25.791901c-0.242859,-20.476868 6.908661,-54.557892 6.908661,-54.557892m116.24826,64.480652c1.241638,6.244995 3.438354,17.293762 0.940704,19.589203c-2.49765,2.295563 -11.900909,-0.425507 -19.564789,-15.199249c-7.663971,-14.773834 -14.737549,-44.407837 -14.737549,-44.407837m12.904816,45.428223c0.478058,6.305023 1.323853,17.459991 -1.441956,19.571716c-2.7659,2.111725 -11.798767,-1.253174 -17.63623,-16.498413c-5.837433,-15.245239 -9.282562,-45.246521 -9.282562,-45.246521m-75.092712,18.395782c-3.341125,7.652618 -9.252319,21.191895 -14.069122,22.562256c-4.816879,1.3703 -14.127167,-6.29187 -11.964996,-26.703979c2.162216,-20.412079 3.145493,-33.310898 3.145493,-33.310898"/>
   </g>
  </g>
 </g>
</svg>